<?xml version="1.0" encoding="UTF-8"?>
<svg width="17px" height="17px" viewBox="0 0 17 17" version="1.1" xmlns="http://www.w3.org/2000/svg" xmlns:xlink="http://www.w3.org/1999/xlink">
    <!-- Generator: sketchtool 61 (101010) - https://sketch.com -->
    <title>DBC00FB4-71A8-4185-8164-F0F12DEA4343</title>
    <desc>Created with sketchtool.</desc>
    <g id="Homepage" stroke="none" stroke-width="1" fill="none" fill-rule="evenodd">
        <g id="Tripax-Home-First-Visit" transform="translate(-885.000000, -36.000000)" fill-rule="nonzero">
            <g id="Elements-/-Module-/-Header-Non-Login">
                <g id="Group-5" transform="translate(869.000000, 25.000000)">
                    <g id="Group-4" transform="translate(16.000000, 9.000000)">
                        <g id="united-states" transform="translate(0.000000, 2.000000)">
                            <circle id="Oval" fill="#F0F0F0" cx="8.34370271" cy="8.34370271" r="8.34370271"></circle>
                            <g id="Group" transform="translate(0.260741, 1.792592)" fill="#D80027">
                                <path d="M7.72020649,6.55111033 L16.4266647,6.55111033 C16.4266647,5.79802598 16.3262795,5.06847347 16.1392307,4.37447948 L7.72020649,4.37447948 L7.72020649,6.55111033 Z" id="Path"></path>
                                <path d="M7.72020649,2.19788122 L15.2020308,2.19788122 C14.6912723,1.36442354 14.0382146,0.627733259 13.2767866,0.0212503678 L7.72020649,0.0212503678 L7.72020649,2.19788122 Z" id="Path"></path>
                                <path d="M8.082962,14.894813 C10.0466329,14.894813 11.8515127,14.216105 13.2767866,13.0809703 L2.88913743,13.0809703 C4.31441134,14.216105 6.11929112,14.894813 8.082962,14.894813 Z" id="Path"></path>
                                <path d="M0.963893218,10.9043394 L15.2020308,10.9043394 C15.6120781,10.2352462 15.930084,9.5038685 16.1392307,8.72770859 L0.0266933302,8.72770859 C0.235839972,9.5038685 0.55384586,10.2352462 0.963893218,10.9043394 Z" id="Path"></path>
                            </g>
                            <path d="M3.86495954,1.30298651 L4.62531204,1.30298651 L3.91805287,1.81680867 L4.18821283,2.64821302 L3.48098625,2.13439086 L2.77375967,2.64821302 L3.0071226,1.92997014 C2.3844086,2.44868119 1.83861311,3.0564026 1.38883539,3.73354622 L1.63246499,3.73354622 L1.18226356,4.06061285 C1.11212431,4.17762024 1.04485321,4.29648541 0.980385068,4.41711058 L1.19536578,5.07877273 L0.794281387,4.78736239 C0.694580658,4.99859496 0.603386595,5.21458605 0.521416234,5.43507491 L0.758266576,6.16410593 L1.63246499,6.16410593 L0.925205816,6.67792809 L1.19536578,7.50933244 L0.488139201,6.99551028 L0.0645007331,7.30331468 C0.0220977751,7.64416798 0,7.99134423 0,8.34370271 L8.34370271,8.34370271 C8.34370271,3.73563215 8.34370271,3.19237888 8.34370271,0 C6.69543031,0 5.1589179,0.478133276 3.86495954,1.30298651 Z M4.18821283,7.50933244 L3.48098625,6.99551028 L2.77375967,7.50933244 L3.04391964,6.67792809 L2.33666046,6.16410593 L3.21085888,6.16410593 L3.48098625,5.33270159 L3.75111363,6.16410593 L4.62531204,6.16410593 L3.91805287,6.67792809 L4.18821283,7.50933244 Z M3.91805287,4.24736838 L4.18821283,5.07877273 L3.48098625,4.56495057 L2.77375967,5.07877273 L3.04391964,4.24736838 L2.33666046,3.73354622 L3.21085888,3.73354622 L3.48098625,2.90214188 L3.75111363,3.73354622 L4.62531204,3.73354622 L3.91805287,4.24736838 Z M7.18105988,7.50933244 L6.4738333,6.99551028 L5.76660672,7.50933244 L6.03676669,6.67792809 L5.32950751,6.16410593 L6.20370593,6.16410593 L6.4738333,5.33270159 L6.74396068,6.16410593 L7.61815909,6.16410593 L6.91089992,6.67792809 L7.18105988,7.50933244 Z M6.91089992,4.24736838 L7.18105988,5.07877273 L6.4738333,4.56495057 L5.76660672,5.07877273 L6.03676669,4.24736838 L5.32950751,3.73354622 L6.20370593,3.73354622 L6.4738333,2.90214188 L6.74396068,3.73354622 L7.61815909,3.73354622 L6.91089992,4.24736838 Z M6.91089992,1.81680867 L7.18105988,2.64821302 L6.4738333,2.13439086 L5.76660672,2.64821302 L6.03676669,1.81680867 L5.32950751,1.30298651 L6.20370593,1.30298651 L6.4738333,0.471582166 L6.74396068,1.30298651 L7.61815909,1.30298651 L6.91089992,1.81680867 Z" id="Shape" fill="#0052B4"></path>
                        </g>
                    </g>
                </g>
            </g>
        </g>
    </g>
</svg>