<?xml version="1.0" encoding="UTF-8"?>
<svg width="161px" height="40px" viewBox="0 0 161 40" version="1.1" xmlns="http://www.w3.org/2000/svg" xmlns:xlink="http://www.w3.org/1999/xlink">
    <!-- Generator: sketchtool 61 (101010) - https://sketch.com -->
    <title>09C7E515-12D6-421D-BC5D-97F010491822</title>
    <desc>Created with sketchtool.</desc>
    <g id="Homepage" stroke="none" stroke-width="1" fill="none" fill-rule="evenodd">
        <g id="Tripax-Home-First-Visit" transform="translate(-135.000000, -26.000000)">
            <g id="Elements-/-Module-/-Header-Non-Login">
                <g id="Tripax-Logo" transform="translate(135.000000, 26.000000)">
                    <g id="Group" transform="translate(45.820744, 0.000000)" fill="#3859FF">
                        <polygon id="Fill-1" points="9.27270037 7.76712031 -4.26325641e-14 7.76712031 -4.26325641e-14 3.37092013 23.7414009 3.37092013 23.7414009 7.76712031 14.4681006 7.76712031 14.4681006 31.3486212 9.27270037 31.3486212"></polygon>
                        <path d="M36.6105015,9.76575039 L36.6105015,14.5219506 C36.1839014,14.4421506 35.7975014,14.4022506 35.4519014,14.4022506 C33.5064013,14.4022506 31.9875013,14.9686506 30.8949012,16.1008506 C29.8023012,17.2330507 29.2566012,18.8650507 29.2566012,20.9971508 L29.2566012,31.3486512 L24.260401,31.3486512 L24.260401,10.0057504 L29.0169012,10.0057504 L29.0169012,13.1233505 C30.4554012,10.8847504 32.9865013,9.76575039 36.6105015,9.76575039" id="Fill-2"></path>
                        <polygon id="Fill-4" points="39.2486116 31.3485012 44.2448118 31.3485012 44.2448118 10.0056004 39.2486116 10.0056004"></polygon>
                        <path d="M63.4092325,25.513411 C64.5945326,24.287911 65.1879326,22.6751109 65.1879326,20.6771108 C65.1879326,18.6785107 64.5945326,17.0663107 63.4092325,15.8408106 C62.2227325,14.6153106 60.7116324,14.0021106 58.8726323,14.0021106 C57.6738323,14.0021106 56.5941322,14.2754106 55.6353322,14.8211106 C54.6756322,15.3677106 53.9163321,16.1474106 53.3565321,17.1596107 C52.7976321,18.1727107 52.5177321,19.3448108 52.5177321,20.6771108 C52.5177321,22.0094109 52.7976321,23.1815109 53.3565321,24.194611 C53.9163321,25.206811 54.6756322,25.986511 55.6353322,26.5322111 C56.5941322,27.0788111 57.6738323,27.3521111 58.8726323,27.3521111 C60.7116324,27.3521111 62.2227325,26.7389111 63.4092325,25.513411 M65.0079326,11.1245104 C66.6465326,12.0302105 67.9320327,13.3100105 68.8644327,14.9612106 C69.7974328,16.6139107 70.2642328,18.5186107 70.2642328,20.6771108 C70.2642328,22.8350109 69.7974328,24.747811 68.8644327,26.412511 C67.9320327,28.0778111 66.6465326,29.3639112 65.0079326,30.2696112 C63.3690325,31.1753112 61.5105324,31.6286113 59.4318324,31.6286113 C56.5539322,31.6286113 54.2766322,30.6689112 52.5978321,28.7510111 L52.5978321,39.1025116 L47.6016319,39.1025116 L47.6016319,10.0058104 L52.3578321,10.0058104 L52.3578321,12.8033105 C53.1834321,11.7911105 54.2025322,11.0312104 55.4154322,10.5248104 C56.6277323,10.0190104 57.9663323,9.76581039 59.4318324,9.76581039 C61.5105324,9.76581039 63.3690325,10.2191104 65.0079326,11.1245104" id="Fill-6"></path>
                        <path d="M84.3310234,27.1322111 C85.3033234,26.5589111 85.9897234,25.739911 86.3896234,24.673711 L86.3896234,22.1960109 L81.2335232,22.1960109 C78.3559231,22.1960109 76.9171231,23.1416109 76.9171231,25.033411 C76.9171231,25.940011 77.2768231,26.6588111 77.9959231,27.1922111 C78.7156231,27.7253111 79.7146232,27.9911111 80.9935232,27.9911111 C82.2457233,27.9911111 83.3581233,27.7055111 84.3310234,27.1322111 M88.8874235,12.0236105 C90.5527236,13.5299105 91.3861236,15.8009106 91.3861236,18.8384107 L91.3861236,31.3487112 L86.6695234,31.3487112 L86.6695234,28.7510111 C86.0557234,29.6840112 85.1833234,30.3962112 84.0511233,30.8885112 C82.9180233,31.3820112 81.5533232,31.6286113 79.9546232,31.6286113 C78.3559231,31.6286113 76.9570231,31.3544112 75.758223,30.8087112 C74.558523,30.2630112 73.6330229,29.5040112 72.9796229,28.5311111 C72.3265229,27.5588111 72.0007229,26.4590111 72.0007229,25.233511 C72.0007229,23.3147109 72.7129229,21.7760109 74.1394229,20.6171108 C75.564123,19.4582108 77.8093231,18.8783108 80.8738232,18.8783108 L86.3896234,18.8783108 L86.3896234,18.5585107 C86.3896234,17.0663107 85.9432234,15.9209106 85.0507234,15.1211106 C84.1579233,14.3222106 82.8322233,13.9223106 81.0736232,13.9223106 C79.8748232,13.9223106 78.6958231,14.1089106 77.5363231,14.4821106 C76.377123,14.8553106 75.398523,15.3752106 74.598723,16.0409106 L72.6397229,12.4034105 C73.7596229,11.5511105 75.104223,10.8980104 76.677123,10.4447104 C78.2494231,9.9923104 79.9147232,9.76581039 81.6736232,9.76581039 C84.8167234,9.76581039 87.2221235,10.5191104 88.8874235,12.0236105" id="Fill-7"></path>
                        <polygon id="Fill-8" points="109.158664 31.3486212 103.683364 23.954821 98.1672639 31.3486212 92.6520637 31.3486212 100.965664 20.5174208 93.0120637 10.0057204 98.5671639 10.0057204 103.803064 16.9996207 109.038664 10.0057204 114.434765 10.0057204 106.440964 20.4373208 114.794765 31.3486212"></polygon>
                        <path d="M45.2375418,3.49080014 C45.2375418,5.41860022 43.6745417,6.98160028 41.7467417,6.98160028 C39.8189416,6.98160028 38.2559415,5.41860022 38.2559415,3.49080014 C38.2559415,1.56270006 39.8189416,-2.84217094e-14 41.7467417,-2.84217094e-14 C43.6745417,-2.84217094e-14 45.2375418,1.56270006 45.2375418,3.49080014" id="Fill-9"></path>
                    </g>
                    <g id="Group-3" transform="translate(0.000000, 1.642828)">
                        <g id="Fill-12" transform="translate(6.454389, 11.489864)" fill="#45CDFF">
                            <path d="M19.1470744,1.82506822 C19.5958744,0.753168174 18.5050744,-0.33883187 17.4229743,0.0991681477 L10.9987741,2.75626825 L0.81167368,6.97126842 C-0.309426364,7.44826844 -0.261426363,9.0562685 0.907673684,9.44686852 C3.01247377,10.1497685 4.87367384,11.3299686 6.3931739,12.8512687 C6.49067391,12.9487687 6.58817391,13.0462687 6.67577391,13.1536687 C8.05877397,14.6161687 9.12977401,16.3711688 9.79157404,18.3403689 C9.85997404,18.5449689 9.96677404,18.7303689 10.103274,18.8668689 C10.7167741,19.4812689 11.8768741,19.3549689 12.2572741,18.4294689 L19.1470744,1.82506822 Z" id="Fill-10"></path>
                        </g>
                        <path d="M32.0145338,5.7167721 C28.4700337,2.08947196 23.7249335,0.0596718765 18.6534333,0.00147187423 C13.5840331,-0.0609281282 8.79273293,1.86267195 5.16573278,5.40657209 C5.16543278,5.40687209 5.16483278,5.40717209 5.16453278,5.40747209 C2.68983268,7.82577219 0.924032613,10.8662723 0.0582325789,14.1998724 C-0.191667431,15.1619725 0.385832592,16.1447725 1.34823263,16.3946725 C1.50003264,16.4339725 1.65213264,16.4528725 1.80183265,16.4528725 C2.60193268,16.4528725 3.33243271,15.9152725 3.54303272,15.1046725 C4.24383275,12.4052724 5.6745328,9.94257227 7.68063288,7.98237219 C7.68093288,7.98237219 7.68093288,7.98207219 7.68123288,7.98177219 C10.620633,5.10987208 14.5110332,3.55257202 18.6120333,3.60117202 C22.7217335,3.64827202 26.5674336,5.29317208 29.4399337,8.2328722 C33.5838339,12.4733724 34.924834,18.8063726 32.8560339,24.3662728 C32.0628339,26.4968729 30.8295338,28.389873 29.1894337,29.9924731 C26.9982336,32.1335732 24.2556335,33.5594732 21.2571334,34.1156732 C20.2797334,34.2968732 19.6341334,35.2361733 19.8156334,36.2135733 C19.9764334,37.0802733 20.7327334,37.6856734 21.5832334,37.6856734 C21.6924334,37.6856734 21.8028334,37.6757734 21.9138334,37.6550734 C25.6164336,36.9683733 29.0022337,35.2088733 31.7055338,32.5670732 C33.7281339,30.5906731 35.250334,28.253973 36.229834,25.6220729 C38.7825341,18.7622726 37.1280341,10.9490723 32.0145338,5.7167721" id="Fill-11" fill="#3859FF"></path>
                    </g>
                </g>
            </g>
        </g>
    </g>
</svg>